HIERARCHY
ROOT Hips
{
	OFFSET 0.000000 0.000000 0.000000
	CHANNELS 6 Xposition Yposition Zposition Zrotation Yrotation Xrotation 
	JOINT LHipJoint
	{
		OFFSET 0.000000 0.000000 0.000000
		CHANNELS 3 Zrotation Yrotation Xrotation
		JOINT LeftUpLeg
		{
			OFFSET 1.363060 -1.794630 0.839290
			CHANNELS 3 Zrotation Yrotation Xrotation
			JOINT LeftLeg
			{
				OFFSET 2.448110 -6.726130 0.000000
				CHANNELS 3 Zrotation Yrotation Xrotation
				JOINT LeftFoot
				{
					OFFSET 2.562200 -7.039590 0.000000
					CHANNELS 3 Zrotation Yrotation Xrotation
					JOINT LeftToeBase
					{
						OFFSET 0.157640 -0.433110 2.322550
						CHANNELS 3 Zrotation Yrotation Xrotation
						End Site
						{
							OFFSET 0.000000 0.000000 0.000000
						}
					}
				}
			}
		}
	}
	JOINT RHipJoint
	{
		OFFSET 0.000000 0.000000 0.000000
		CHANNELS 3 Zrotation Yrotation Xrotation
		JOINT RightUpLeg
		{
			OFFSET -1.305520 -1.794630 0.839290
			CHANNELS 3 Zrotation Yrotation Xrotation
			JOINT RightLeg
			{
				OFFSET -2.542530 -6.985550 0.000000
				CHANNELS 3 Zrotation Yrotation Xrotation
				JOINT RightFoot
				{
					OFFSET -2.568260 -7.056230 0.000000
					CHANNELS 3 Zrotation Yrotation Xrotation
					JOINT RightToeBase
					{
						OFFSET -0.164730 -0.452590 2.363150
						CHANNELS 3 Zrotation Yrotation Xrotation
						End Site
						{
							OFFSET 0.000000 0.000000 0.000000
						}
					}
				}
			}
		}
	}
	JOINT LowerBack
	{
		OFFSET 0.000000 0.000000 0.000000
		CHANNELS 3 Zrotation Yrotation Xrotation
		JOINT Spine
		{
			OFFSET 0.028270 2.035590 -0.193380
			CHANNELS 3 Zrotation Yrotation Xrotation
			JOINT Spine1
			{
				OFFSET 0.056720 2.048850 -0.042750
				CHANNELS 3 Zrotation Yrotation Xrotation
				JOINT Neck
				{
					OFFSET 0.000000 0.000000 0.000000
					CHANNELS 3 Zrotation Yrotation Xrotation
					JOINT Neck1
					{
						OFFSET -0.054170 1.746240 0.172020
						CHANNELS 3 Zrotation Yrotation Xrotation
						JOINT Head
						{
							OFFSET 0.104070 1.761360 -0.123970
							CHANNELS 3 Zrotation Yrotation Xrotation
							End Site
							{
								OFFSET 0.000000 0.000000 0.000000
							}
						}
					}
				}
				JOINT LeftShoulder
				{
					OFFSET 0.000000 0.000000 0.000000
					CHANNELS 3 Zrotation Yrotation Xrotation
					JOINT LeftArm
					{
						OFFSET 3.362410 1.200890 -0.311210
						CHANNELS 3 Zrotation Yrotation Xrotation
						JOINT LeftForeArm
						{
							OFFSET 4.983000 -0.000000 -0.000000
							CHANNELS 3 Zrotation Yrotation Xrotation
							JOINT LeftHand
							{
								OFFSET 3.483560 -0.000000 -0.000000
								CHANNELS 3 Zrotation Yrotation Xrotation
								JOINT LeftFingerBase
								{
									OFFSET 0.000000 0.000000 0.000000
									CHANNELS 3 Zrotation Yrotation Xrotation
									JOINT LeftHandIndex1
									{
										OFFSET 0.715260 -0.000000 -0.000000
										CHANNELS 3 Zrotation Yrotation Xrotation
										End Site
										{
											OFFSET 0.000000 0.000000 0.000000
										}
									}
								}
								JOINT LThumb
								{
									OFFSET 0.000000 0.000000 0.000000
									CHANNELS 3 Zrotation Yrotation Xrotation
									End Site
									{
										OFFSET 0.000000 0.000000 0.000000
									}
								}
							}
						}
					}
				}
				JOINT RightShoulder
				{
					OFFSET 0.000000 0.000000 0.000000
					CHANNELS 3 Zrotation Yrotation Xrotation
					JOINT RightArm
					{
						OFFSET -3.136600 1.374050 -0.404650
						CHANNELS 3 Zrotation Yrotation Xrotation
						JOINT RightForeArm
						{
							OFFSET -5.241900 -0.000000 -0.000000
							CHANNELS 3 Zrotation Yrotation Xrotation
							JOINT RightHand
							{
								OFFSET -3.444170 -0.000000 -0.000000
								CHANNELS 3 Zrotation Yrotation Xrotation
								JOINT RightFingerBase
								{
									OFFSET 0.000000 0.000000 0.000000
									CHANNELS 3 Zrotation Yrotation Xrotation
									JOINT RightHandIndex1
									{
										OFFSET -0.622530 -0.000000 -0.000000
										CHANNELS 3 Zrotation Yrotation Xrotation
										End Site
										{
											OFFSET 0.000000 0.000000 0.000000
										}
									}
								}
								JOINT RThumb
								{
									OFFSET 0.000000 0.000000 0.000000
									CHANNELS 3 Zrotation Yrotation Xrotation
									End Site
									{
										OFFSET 0.000000 0.000000 0.000000
									}
								}
							}
						}
					}
				}
			}
		}
	}
}
MOTION
Frames: 8
Frame Time: 0.008333
-11.667848 16.985161 -1.453271 175.658806 81.662006 177.617271 -11.058826 5.222847 0.529963 0.660064 7.475754 11.560267 -0.529960 2.036765 23.468558 0.389929 -3.595939 15.411223 -1.463400 -0.000000 -77.802900 9.166544 -0.774792 -0.055464 12.232525 -10.649211 -26.349110 2.054150 -0.802655 19.482148 -2.289903 -11.024907 -3.537689 -1.598300 0.000000 -22.560700 2.867097 -4.734529 -1.919121 0.192201 -5.031802 -2.505825 -5.666917 -4.960483 3.072220 9.710731 -21.136535 -10.917694 -2.418290 -0.145218 -0.811571 0.000000 0.000000 0.000000 0.550483 15.568987 0.515383 -44.587911 1.890672 0.008623 -1.647790 -60.852982 -0.006202 3.411593 0.047898 -0.001701 -0.146712 0.149107 -0.000000 0.000000 0.000000 0.000000 0.000000 0.000000 0.000000 15.829108 -19.225040 -0.070597 77.230938 -20.470289 -6.481073 4.443626 24.357378 0.003091 7.902051 1.854911 0.127292 0.074104 -0.000825 -0.000000 0.000000 0.000000 0.000000 0.000000 0.000000 0.000000 
-11.490889 16.991475 -1.431370 176.617311 81.546213 178.428178 -11.148267 5.257925 0.544627 1.288257 7.608154 10.922340 -0.380320 2.128650 25.242980 0.481044 -4.185337 17.269471 -1.865099 0.000000 -77.178600 9.152914 -0.841973 -0.102585 12.364419 -10.641318 -25.980411 2.033186 -0.887346 20.508842 -2.306280 -10.965438 -4.249105 -1.419000 0.000000 -20.139599 3.028528 -4.686227 -1.925236 0.218858 -4.993456 -2.522639 -5.669568 -4.924978 3.034101 9.758190 -20.973912 -10.873509 -2.441371 -0.148194 -0.799397 0.000000 0.000000 0.000000 0.603666 15.490631 0.488676 -45.410107 2.537069 -0.130348 -1.680478 -60.469016 -0.006061 3.470551 0.035851 -0.002000 -0.147353 0.144761 -0.000000 0.000000 0.000000 0.000000 0.000000 0.000000 0.000000 15.881262 -19.016506 -0.071167 76.825244 -19.735212 -7.002529 4.452203 23.902481 0.003140 7.705940 1.730676 0.115797 0.076191 -0.001871 -0.000000 0.000000 0.000000 0.000000 0.000000 0.000000 0.000000 
-11.316499 16.997445 -1.408203 177.460841 81.436865 179.142741 -11.238622 5.276697 0.549474 1.887478 7.783192 10.161319 -0.234584 2.208868 27.140525 0.592675 -4.650750 19.100981 -2.253200 -0.000000 -75.776900 9.137180 -0.902266 -0.143126 12.498329 -10.609341 -25.549524 2.016577 -0.949821 21.388925 -2.338910 -10.960762 -5.061060 -1.227299 0.000000 -17.870000 3.163172 -4.639517 -1.921436 0.240005 -4.954630 -2.537535 -5.672989 -4.889210 2.996379 9.812886 -20.795416 -10.831936 -2.461638 -0.150829 -0.788010 0.000000 0.000000 0.000000 0.664205 15.413286 0.467161 -46.266070 3.192499 -0.279188 -1.717136 -60.025260 -0.005920 3.530902 0.031846 -0.002101 -0.148002 0.140156 -0.000000 0.000000 0.000000 0.000000 0.000000 0.000000 0.000000 15.923823 -18.793446 -0.068503 76.440639 -18.931616 -7.577782 4.454059 23.454059 0.003301 7.446620 1.638866 0.106105 0.078570 -0.003489 -0.000000 0.000000 0.000000 0.000000 0.000000 0.000000 0.000000 
-11.144808 17.002701 -1.384046 178.190012 81.327639 179.760796 -11.327759 5.277396 0.544500 2.445716 7.993283 9.281165 -0.095886 2.278032 29.153579 0.722113 -4.913524 20.843043 -2.575200 0.000000 -73.574200 9.120276 -0.955949 -0.178436 12.631583 -10.561705 -25.062543 2.003484 -0.992739 22.132251 -2.386094 -11.006931 -5.944498 -1.025999 -0.000000 -15.800201 3.272617 -4.594576 -1.907477 0.256108 -4.915571 -2.550191 -5.676782 -4.853385 2.959625 9.871536 -20.606375 -10.794222 -2.478711 -0.153074 -0.777746 0.000000 0.000000 0.000000 0.725222 15.338972 0.451370 -47.144146 3.841220 -0.424612 -1.757948 -59.518943 -0.005773 3.587602 0.036660 -0.001805 -0.148603 0.135271 -0.000000 0.000000 0.000000 0.000000 0.000000 0.000000 0.000000 15.953839 -18.561845 -0.063252 76.076028 -18.063077 -8.185883 4.448861 23.016514 0.003600 7.124157 1.599007 0.099113 0.081210 -0.005754 -0.000000 0.000000 0.000000 0.000000 0.000000 0.000000 0.000000 
-10.975864 17.006959 -1.359160 178.769772 81.214152 -179.757225 -11.411388 5.259066 0.529148 2.940126 8.224987 8.302685 0.032785 2.338319 31.260385 0.864157 -4.883553 22.407743 -2.762600 -0.000001 -70.555600 9.104966 -1.003530 -0.212850 12.754799 -10.522575 -24.528399 1.993335 -1.020273 22.756021 -2.442601 -11.084534 -6.865587 -0.817200 -0.000000 -14.013600 3.352726 -4.549638 -1.879238 0.265836 -4.874118 -2.560004 -5.682012 -4.815268 2.921714 9.933357 -20.405876 -10.759265 -2.494383 -0.155098 -0.768347 0.000000 0.000000 0.000000 0.785408 15.261217 0.441491 -48.035206 4.475033 -0.551835 -1.802871 -58.947682 -0.005604 3.639474 0.046447 -0.001412 -0.149131 0.130056 -0.000000 0.000000 0.000000 0.000000 0.000000 0.000000 0.000000 15.978876 -18.319101 -0.056159 75.727730 -17.154189 -8.809073 4.435277 22.627282 0.004006 6.746630 1.603261 0.094124 0.083990 -0.008603 -0.000000 0.000000 0.000000 0.000000 0.000000 0.000000 0.000000 
-10.809656 17.010111 -1.333879 179.203802 81.094162 -179.410073 -11.487642 5.222032 0.503072 3.360459 8.471734 7.237166 0.150721 2.392991 33.441257 1.013959 -4.492046 23.723207 -2.754400 0.000000 -66.825900 9.092555 -1.045993 -0.247897 12.864408 -10.502203 -23.958021 1.984968 -1.035992 23.278477 -2.505384 -11.185343 -7.793719 -0.605000 0.000000 -12.548700 3.405453 -4.503041 -1.836133 0.269562 -4.828685 -2.566637 -5.688162 -4.773234 2.883216 9.996181 -20.201052 -10.727837 -2.508588 -0.156888 -0.760046 0.000000 0.000000 0.000000 0.841850 15.181824 0.436832 -48.935971 5.078830 -0.649059 -1.852151 -58.304322 -0.005401 3.683752 0.059602 -0.000820 -0.149554 0.124508 -0.000000 0.000000 0.000000 0.000000 0.000000 0.000000 0.000000 15.999111 -18.072187 -0.047934 75.387781 -16.209683 -9.403486 4.413190 22.294089 0.004506 6.318388 1.658383 0.091239 0.086857 -0.011979 -0.000000 0.000000 0.000000 0.000000 0.000000 0.000000 0.000000 
-10.646120 17.012284 -1.308784 179.559392 80.966435 -179.129692 -11.557529 5.167419 0.467464 3.710538 8.727729 6.087284 0.258895 2.445529 35.675811 1.167980 -3.694999 24.725976 -2.506500 -0.000001 -62.597801 9.081096 -1.085268 -0.282233 12.970205 -10.496485 -23.358998 1.977744 -1.041319 23.705269 -2.574329 -11.314818 -8.703452 -0.394400 -0.000000 -11.389499 3.444846 -4.453234 -1.782787 0.270232 -4.778755 -2.571130 -5.694574 -4.726756 2.844404 10.053982 -19.992616 -10.698618 -2.521189 -0.158469 -0.752460 0.000000 0.000000 0.000000 0.885929 15.100281 0.436657 -49.844131 5.648515 -0.710388 -1.905835 -57.587315 -0.005167 3.718568 0.078381 -0.000033 -0.149840 0.118586 -0.000000 0.000000 0.000000 0.000000 0.000000 0.000000 0.000000 16.006455 -17.822070 -0.038540 75.053014 -15.227963 -9.967623 4.385517 21.998714 0.005107 5.858877 1.775084 0.090655 0.089760 -0.015875 -0.000000 0.000000 0.000000 0.000000 0.000000 0.000000 0.000000 
-10.485142 17.013578 -1.284087 179.795208 80.835354 -178.963038 -11.617911 5.096834 0.422113 3.971504 8.982985 4.881978 0.358534 2.499080 37.924359 1.322638 -2.474135 25.354818 -1.997299 0.000000 -58.087000 9.073636 -1.122078 -0.319312 13.059429 -10.523837 -22.743033 1.971159 -1.040776 24.061235 -2.643449 -11.449660 -9.575106 -0.187400 0.000000 -10.560999 3.464188 -4.396664 -1.715583 0.265859 -4.720218 -2.572829 -5.702253 -4.671665 2.804032 10.108914 -19.779398 -10.670067 -2.534290 -0.160044 -0.745253 0.000000 0.000000 0.000000 0.923165 15.016249 0.439760 -50.761767 6.174754 -0.727840 -1.964037 -56.786561 -0.004888 3.747197 0.094403 0.000752 -0.150011 0.112305 -0.000000 0.000000 0.000000 0.000000 0.000000 0.000000 0.000000 16.013817 -17.564981 -0.029091 74.711204 -14.231938 -10.463825 4.351559 21.776285 0.005734 5.380770 1.926290 0.090274 0.092572 -0.020065 -0.000000 0.000000 0.000000 0.000000 0.000000 0.000000 0.000000 
